#!OML:ASF H:\LiuWeirdWalks\Patient Classification 1\Patient 1\Session 1\male.ASF
:FULLY-SPECIFIED
:DEGREES
914
root 0.614911 18.0853 3.64105 3.11941 0.0433072 -4.80501
lowerback 10.7321 0.0491983 3.21657
upperback 2.23637 0.575463 3.60485
thorax -3.69056 0.264863 1.86392
lowerneck -17.2882 2.59314 7.7038
upperneck 8.47362 3.36445 -12.7678
head 5.75595 0.941906 -5.02551
rclavicle 2.88238e-015 2.3059e-014
rhumerus -20.583 -33.7949 -7.33778
rradius 35.8616
rwrist 0.186081
rhand -22.6482 -4.3354
rfingers 7.12502
rthumb 3.78285 -34.2816
lclavicle 2.88238e-015 2.3059e-014
lhumerus -32.9401 30.9049 20.1769
lradius 47.9343
lwrist 12.1887
lhand -19.3443 -0.516759
lfingers 7.12502
lthumb 6.97275 29.3484
rfemur 2.25829 -2.80884 22.6384
rtibia 24.5779
rfoot -10.8488 -16.4772
rtoes -15.2428
lfemur -23.1924 0.283252 -7.64277
ltibia 21.8688
lfoot -3.70362 15.4169
ltoes -19.929
915
root 0.659498 18.0754 3.7197 3.02931 -0.108925 -5.06282
lowerback 10.6575 0.0835633 3.10887
upperback 2.20603 0.605679 3.59376
thorax -3.6823 0.280792 1.90873
lowerneck -17.3236 2.62193 7.75124
upperneck 8.60884 3.37848 -12.5862
head 5.80132 0.960244 -4.97411
rclavicle -9.74045e-015 1.19271e-015
rhumerus -20.4417 -33.7455 -7.31132
rradius 35.8538
rwrist 0.188534
rhand -22.5874 -4.34863
rfingers 7.12502
rthumb 3.84151 -34.2938
lclavicle -9.74045e-015 1.19271e-015
lhumerus -32.9485 30.9131 20.227
lradius 47.9412
lwrist 12.2203
lhand -19.3938 -0.513829
lfingers 7.12502
lthumb 6.92501 29.3529
rfemur 2.51542 -2.86003 22.6548
rtibia 24.7564
rfoot -10.7479 -16.1429
rtoes -15.6226
lfemur -23.0035 0.11155 -7.46666
ltibia 22.2838
lfoot -3.28505 15.1434
ltoes -19.791
916
root 0.703991 18.068 3.79745 2.95155 -0.247773 -5.25684
lowerback 10.595 0.11828 2.92653
upperback 2.17232 0.628605 3.5694
thorax -3.68489 0.293783 1.98275
lowerneck -17.3809 2.65232 7.80062
upperneck 8.75617 3.39402 -12.4081
head 5.8545 0.978458 -4.92423
rclavicle 4.67144e-015 1.63003e-014
rhumerus -20.3258 -33.6886 -7.2886
rradius 35.8731
rwrist 0.172732
rhand -22.5223 -4.28998
rfingers 7.12502
rthumb 3.90445 -34.234
lclavicle 4.67144e-015 1.63003e-014
lhumerus -32.9535 30.9418 20.2864
lradius 47.9454
lwrist 12.2352
lhand -19.4542 -0.533699
lfingers 7.12502
lthumb 6.86674 29.3349
rfemur 2.7241 -2.89232 22.6061
rtibia 24.9904
rfoot -10.6198 -15.8253
rtoes -15.9841
lfemur -22.8624 0.013087 -7.37138
ltibia 22.7127
lfoot -2.85914 14.9125
ltoes -19.461
917
root 0.747319 18.0631 3.87412 2.88007 -0.353635 -5.40636
lowerback 10.5535 0.14932 2.68652
upperback 2.13019 0.641717 3.53653
thorax -3.70844 0.302432 2.08182
lowerneck -17.4881 2.67456 7.82615
upperneck 8.91858 3.39859 -12.206
head 5.91863 0.990761 -4.86388
rclavicle 1.19271e-015 -3.93594e-014
rhumerus -20.2545 -33.5946 -7.26176
rradius 35.9296
rwrist 0.122209
rhand -22.4652 -4.20031
rfingers 7.12502
rthumb 3.95951 -34.1433
lclavicle 1.19271e-015 -3.93594e-014
lhumerus -32.9537 30.9582 20.3659
lradius 47.9594
lwrist 12.2606
lhand -19.5203 -0.536717
lfingers 7.12502
lthumb 6.80292 29.334
rfemur 2.88469 -2.92088 22.5215
rtibia 25.2948
rfoot -10.4592 -15.5299
rtoes -16.3509
lfemur -22.7664 0.00271886 -7.33502
ltibia 23.1367
lfoot -2.42125 14.6855
ltoes -18.8854
918
root 0.789322 18.0609 3.94953 2.82817 -0.425645 -5.46163
lowerback 10.5271 0.176609 2.33777
upperback 2.08102 0.637996 3.47765
thorax -3.7482 0.303899 2.21738
lowerneck -17.6743 2.69448 7.82172
upperneck 9.14395 3.40124 -11.9613
head 6.01407 1.00124 -4.78572
rclavicle 3.08116e-015 2.38542e-014
rhumerus -20.201 -33.5121 -7.24774
rradius 35.9943
rwrist 0.068461
rhand -22.4167 -4.14359
rfingers 7.12502
rthumb 4.00635 -34.0857
lclavicle 3.08116e-015 2.38542e-014
lhumerus -32.9614 30.9482 20.4546
lradius 47.9912
lwrist 12.2959
lhand -19.5952 -0.523842
lfingers 7.12502
lthumb 6.73056 29.3492
rfemur 2.97257 -2.95794 22.3422
rtibia 25.6849
rfoot -10.2808 -15.2426
rtoes -16.697
lfemur -22.7172 0.0729056 -7.41483
ltibia 23.544
lfoot -1.9947 14.4257
ltoes -18.1601
919
root 0.829675 18.0604 4.02397 2.78455 -0.47123 -5.47713
lowerback 10.5045 0.200468 1.94101
upperback 2.03359 0.623874 3.40288
thorax -3.78829 0.300936 2.36501
lowerneck -17.9302 2.69752 7.75047
upperneck 9.43668 3.38596 -11.6358
head 6.13767 1.00437 -4.67259
rclavicle -1.26228e-014 -8.34896e-015
rhumerus -20.184 -33.421 -7.23859
rradius 36.0725
rwrist 0.0195914
rhand -22.353 -4.07393
rfingers 7.12502
rthumb 4.0679 -34.0148
lclavicle -1.26228e-014 -8.34896e-015
lhumerus -32.9692 30.9081 20.5519
lradius 48.0367
lwrist 12.3361
lhand -19.6411 -0.479289
lfingers 7.12502
lthumb 6.68629 29.3951
rfemur 3.00096 -2.99086 22.1313
rtibia 26.1591
rfoot -10.081 -14.9672
rtoes -17.0311
lfemur -22.6863 0.226864 -7.54768
ltibia 23.9375
lfoot -1.62376 14.0904
ltoes -17.2708
920
root 0.869813 18.0614 4.09802 2.7531 -0.48235 -5.44478
lowerback 10.4677 0.213623 1.51031
upperback 1.99636 0.589881 3.30504
thorax -3.80901 0.288663 2.51049
lowerneck -18.1704 2.70315 7.68957
upperneck 9.6719 3.36519 -11.3026
head 6.24032 1.00808 -4.55819
rclavicle 1.64991e-014 2.78299e-015
rhumerus -20.1676 -33.3348 -7.2516
rradius 36.1456
rwrist -0.0495726
rhand -22.2875 -4.10041
rfingers 7.12502
rthumb 4.13114 -34.0401
lclavicle 1.64991e-014 2.78299e-015
lhumerus -32.9683 30.8606 20.6489
lradius 48.069
lwrist 12.3452
lhand -19.6629 -0.470752
lfingers 7.12502
lthumb 6.66523 29.4043
rfemur 2.974 -3.0567 21.863
rtibia 26.7043
rfoot -9.85867 -14.671
rtoes -17.3448
lfemur -22.6622 0.424198 -7.74725
ltibia 24.3214
lfoot -1.33978 13.6796
ltoes -16.2775
921
root 0.909919 18.0633 4.1725 2.72361 -0.477548 -5.40201
lowerback 10.4217 0.222097 1.08977
upperback 1.96808 0.549681 3.19161
thorax -3.81442 0.273231 2.63488
lowerneck -18.4188 2.71572 7.64129
upperneck 9.89029 3.34692 -10.9655
head 6.33973 1.01467 -4.44403
rclavicle -3.37934e-015 -1.51076e-014
rhumerus -20.1586 -33.2871 -7.26337
rradius 36.1925
rwrist -0.0630986
rhand -22.1975 -4.11166
rfingers 7.12502
rthumb 4.21801 -34.0496
lclavicle -3.37934e-015 -1.51076e-014
lhumerus -32.9384 30.8133 20.7501
lradius 48.072
lwrist 12.3184
lhand -19.6391 -0.460555
lfingers 7.12502
lthumb 6.68823 29.4138
rfemur 2.91812 -3.13504 21.5789
rtibia 27.2906
rfoot -9.59323 -14.3582
rtoes -17.6872
lfemur -22.6241 0.642377 -7.96581
ltibia 24.7081
lfoot -1.15555 13.2333
ltoes -15.2056
922
root 0.951169 18.0662 4.24791 2.69424 -0.463076 -5.39656
lowerback 10.3586 0.225449 0.739061
upperback 1.94525 0.509964 3.07775
thorax -3.80357 0.257213 2.71934
lowerneck -18.5968 2.71391 7.59419
upperneck 10.0456 3.30666 -10.6272
head 6.40557 1.01436 -4.33089
rclavicle 9.69075e-015 -2.0276e-014
rhumerus -20.1663 -33.2194 -7.25839
rradius 36.2351
rwrist -0.0753665
rhand -22.0929 -4.17113
rfingers 7.12502
rthumb 4.31907 -34.1071
lclavicle 9.69075e-015 -2.0276e-014
lhumerus -32.872 30.7827 20.8598
lradius 48.0258
lwrist 12.2424
lhand -19.5887 -0.485168
lfingers 7.12502
lthumb 6.73688 29.3877
rfemur 2.85034 -3.22699 21.3241
rtibia 27.8874
rfoot -9.2713 -14.0167
rtoes -18.0443
lfemur -22.5647 0.85335 -8.14871
ltibia 25.0954
lfoot -1.06058 12.7911
ltoes -14.1324
923
root 0.993731 18.07 4.32408 2.65618 -0.457113 -5.46242
lowerback 10.29 0.224198 0.489318
upperback 1.93417 0.475469 2.97415
thorax -3.77665 0.242506 2.75669
lowerneck -18.7662 2.72977 7.60161
upperneck 10.1787 3.28224 -10.3406
head 6.46681 1.02071 -4.24185
rclavicle 1.07841e-014 2.73329e-014
rhumerus -20.1565 -33.171 -7.24499
rradius 36.2456
rwrist -0.0450042
rhand -21.959 -4.19442
rfingers 7.12502
rthumb 4.44832 -34.1277
lclavicle 1.07841e-014 2.73329e-014
lhumerus -32.7842 30.7528 20.9767
lradius 47.9553
lwrist 12.1669
lhand -19.5526 -0.482529
lfingers 7.12502
lthumb 6.7717 29.3892
rfemur 2.79464 -3.3049 21.1401
rtibia 28.4632
rfoot -8.88073 -13.6556
rtoes -18.4223
lfemur -22.4745 1.0318 -8.24992
ltibia 25.4797
lfoot -1.01847 12.4158
ltoes -13.0705
